<?xml version="1.0" encoding="UTF-8"?><svg xmlns="http://www.w3.org/2000/svg" xmlns:xlink="http://www.w3.org/1999/xlink" contentScriptType="text/ecmascript" width="810" zoomAndPan="magnify" contentStyleType="text/css" viewBox="0 0 810 809.999993" height="809.999993" preserveAspectRatio="xMidYMid meet" version="1.0"><defs><clipPath id="clip-0"><path d="M 86 114.210938 L 729 114.210938 L 729 695.460938 L 86 695.460938 Z M 86 114.210938 " clip-rule="nonzero"/></clipPath></defs><path fill="rgb(100%, 100%, 100%)" d="M 699.355469 173.433594 L 674.117188 153.691406 L 632.96875 122.984375 L 594.5625 149.851562 L 585.78125 149.851562 L 547.375 123.53125 L 508.972656 149.851562 L 499.644531 149.851562 L 461.238281 123.53125 L 422.832031 149.851562 L 413.503906 149.851562 L 375.097656 123.53125 L 336.691406 149.851562 L 327.363281 149.851562 L 288.957031 123.53125 L 250.550781 149.851562 L 242.871094 149.851562 L 242.871094 555.632812 L 94.734375 555.632812 L 94.734375 611.5625 C 94.734375 652.6875 130.945312 687.234375 172.09375 687.234375 L 646.136719 687.234375 C 687.285156 687.234375 720.203125 652.6875 720.203125 611.5625 L 720.203125 223.332031 C 720.203125 190.429688 724.046875 194.269531 699.355469 173.433594 Z M 699.355469 173.433594 " fill-opacity="1" fill-rule="nonzero"/><g clip-path="url(#clip-0)"><path fill="rgb(21.569824%, 27.839661%, 30.979919%)" d="M 646.136719 695.460938 L 172.09375 695.460938 C 125.457031 695.460938 86.503906 657.074219 86.503906 611.5625 L 86.503906 555.632812 C 86.503906 551.246094 90.34375 547.40625 94.734375 547.40625 L 234.640625 547.40625 L 234.640625 149.851562 C 234.640625 145.464844 238.480469 141.628906 242.871094 141.628906 L 248.359375 141.628906 L 284.570312 116.402344 C 287.3125 114.210938 291.152344 114.210938 293.898438 116.402344 L 330.109375 141.628906 L 333.949219 141.628906 L 370.160156 116.402344 C 372.902344 114.210938 376.742188 114.210938 379.488281 116.402344 L 415.699219 141.628906 L 419.539062 141.628906 L 455.75 116.402344 C 458.496094 114.210938 462.335938 114.210938 465.078125 116.402344 L 501.289062 141.628906 L 505.128906 141.628906 L 541.339844 116.953125 C 544.085938 114.757812 547.925781 114.757812 550.667969 116.953125 L 586.878906 142.175781 L 590.722656 142.175781 L 626.933594 116.953125 C 629.675781 114.757812 633.515625 114.757812 636.808594 116.953125 L 679.054688 147.109375 L 705.9375 168.496094 C 726.789062 186.59375 728.984375 188.785156 728.433594 212.363281 L 728.433594 612.109375 C 728.433594 657.625 691.675781 695.460938 646.136719 695.460938 Z M 102.964844 563.855469 L 102.964844 611.5625 C 102.964844 647.753906 135.335938 679.007812 172.09375 679.007812 L 646.136719 679.007812 C 682.347656 679.007812 711.972656 648.851562 711.972656 611.5625 L 711.972656 211.816406 C 712.523438 195.367188 712.523438 195.367188 695.515625 180.558594 L 694.417969 179.464844 L 669.179688 159.722656 L 632.96875 132.855469 L 599.5 156.433594 C 598.402344 157.53125 596.757812 158.078125 595.109375 158.078125 L 585.78125 158.078125 C 584.136719 158.078125 582.492188 157.53125 581.394531 156.433594 L 547.375 133.402344 L 513.910156 156.433594 C 512.261719 157.53125 510.617188 158.078125 508.972656 158.078125 L 499.644531 158.078125 C 497.996094 158.078125 496.351562 157.53125 495.253906 156.433594 L 461.238281 133.402344 L 427.769531 156.433594 C 426.671875 157.53125 425.027344 158.078125 422.832031 158.078125 L 413.503906 158.078125 C 411.859375 158.078125 410.210938 157.53125 409.113281 156.433594 L 375.097656 133.402344 L 341.628906 156.433594 C 340.53125 157.53125 338.886719 158.078125 336.691406 158.078125 L 327.363281 158.078125 C 325.71875 158.078125 324.074219 157.53125 322.976562 156.433594 L 288.957031 133.402344 L 255.492188 156.433594 C 253.84375 157.53125 252.746094 158.078125 251.101562 158.078125 L 251.101562 555.632812 C 251.101562 560.019531 247.261719 563.855469 242.871094 563.855469 Z M 102.964844 563.855469 " fill-opacity="1" fill-rule="nonzero"/></g><path fill="rgb(69.018555%, 74.508667%, 77.249146%)" d="M 89.246094 275.972656 L 89.246094 598.949219 C 89.246094 642.269531 122.714844 677.363281 166.058594 677.363281 C 209.402344 677.363281 242.871094 642.269531 242.871094 598.949219 L 242.871094 275.972656 Z M 89.246094 275.972656 " fill-opacity="1" fill-rule="nonzero"/><path fill="rgb(21.569824%, 27.839661%, 30.979919%)" d="M 166.058594 685.589844 C 118.324219 685.589844 81.015625 647.207031 81.015625 598.949219 L 81.015625 275.972656 C 81.015625 271.585938 84.859375 267.746094 89.246094 267.746094 L 242.871094 267.746094 C 247.261719 267.746094 251.101562 271.585938 251.101562 275.972656 L 251.101562 598.949219 C 251.101562 647.753906 213.792969 685.589844 166.058594 685.589844 Z M 97.476562 284.199219 L 97.476562 598.949219 C 97.476562 638.433594 127.652344 669.140625 166.058594 669.140625 C 204.464844 669.140625 234.640625 638.433594 234.640625 598.949219 L 234.640625 284.199219 Z M 97.476562 284.199219 " fill-opacity="1" fill-rule="nonzero"/><path fill="rgb(21.569824%, 27.839661%, 30.979919%)" d="M 326.265625 225.523438 C 326.265625 229.910156 322.976562 233.203125 318.585938 233.203125 C 314.195312 233.203125 310.90625 229.910156 310.90625 225.523438 C 310.90625 221.136719 314.195312 217.847656 318.585938 217.847656 C 322.425781 217.847656 326.265625 221.6875 326.265625 225.523438 Z M 326.265625 225.523438 " fill-opacity="1" fill-rule="nonzero"/><path fill="rgb(21.569824%, 27.839661%, 30.979919%)" d="M 318.585938 235.945312 C 313.101562 235.945312 308.160156 231.558594 308.160156 225.523438 C 308.160156 219.492188 313.101562 215.105469 318.585938 215.105469 C 324.074219 215.105469 329.011719 220.042969 329.011719 225.523438 C 329.011719 231.558594 324.074219 235.945312 318.585938 235.945312 Z M 318.585938 220.589844 C 315.84375 220.589844 313.648438 222.78125 313.648438 225.523438 C 313.648438 228.265625 315.84375 230.460938 318.585938 230.460938 C 321.328125 230.460938 323.523438 228.265625 323.523438 225.523438 C 323.523438 222.78125 321.328125 220.589844 318.585938 220.589844 Z M 318.585938 220.589844 " fill-opacity="1" fill-rule="nonzero"/><path fill="rgb(21.569824%, 27.839661%, 30.979919%)" d="M 379.488281 225.523438 C 379.488281 229.910156 375.648438 233.203125 371.804688 233.203125 C 367.417969 233.203125 364.125 229.910156 364.125 225.523438 C 364.125 221.136719 367.417969 217.847656 371.804688 217.847656 C 376.195312 217.847656 379.488281 221.6875 379.488281 225.523438 Z M 379.488281 225.523438 " fill-opacity="1" fill-rule="nonzero"/><path fill="rgb(21.569824%, 27.839661%, 30.979919%)" d="M 371.804688 235.945312 C 366.320312 235.945312 361.382812 231.007812 361.382812 225.523438 C 361.382812 219.492188 366.320312 215.105469 371.804688 215.105469 C 377.839844 215.105469 382.230469 220.042969 382.230469 225.523438 C 382.230469 231.558594 377.839844 235.945312 371.804688 235.945312 Z M 371.804688 220.589844 C 369.0625 220.589844 366.867188 222.78125 366.867188 225.523438 C 366.867188 228.265625 369.0625 230.460938 371.804688 230.460938 C 374.550781 230.460938 376.742188 228.265625 376.742188 225.523438 C 376.742188 223.332031 374.550781 220.589844 371.804688 220.589844 Z M 371.804688 220.589844 " fill-opacity="1" fill-rule="nonzero"/><path fill="rgb(21.569824%, 27.839661%, 30.979919%)" d="M 433.257812 225.523438 C 433.257812 229.910156 429.964844 233.203125 425.574219 233.203125 C 421.183594 233.203125 417.894531 229.910156 417.894531 225.523438 C 417.894531 221.136719 421.183594 217.847656 425.574219 217.847656 C 429.964844 217.847656 433.257812 221.6875 433.257812 225.523438 Z M 433.257812 225.523438 " fill-opacity="1" fill-rule="nonzero"/><path fill="rgb(21.569824%, 27.839661%, 30.979919%)" d="M 425.574219 235.945312 C 420.089844 235.945312 415.148438 231.558594 415.148438 225.523438 C 415.148438 219.492188 420.089844 215.105469 425.574219 215.105469 C 431.0625 215.105469 436 220.042969 436 225.523438 C 436 231.558594 431.0625 235.945312 425.574219 235.945312 Z M 425.574219 220.589844 C 422.832031 220.589844 420.636719 222.78125 420.636719 225.523438 C 420.636719 228.265625 422.832031 230.460938 425.574219 230.460938 C 428.316406 230.460938 430.511719 228.265625 430.511719 225.523438 C 430.511719 222.78125 428.316406 220.589844 425.574219 220.589844 Z M 425.574219 220.589844 " fill-opacity="1" fill-rule="nonzero"/><path fill="rgb(21.569824%, 27.839661%, 30.979919%)" d="M 673.566406 509.019531 L 316.941406 509.019531 C 312.550781 509.019531 308.710938 505.183594 308.710938 500.796875 C 308.710938 496.410156 312.550781 492.570312 316.941406 492.570312 L 673.566406 492.570312 C 677.957031 492.570312 681.796875 496.410156 681.796875 500.796875 C 681.796875 505.183594 677.957031 509.019531 673.566406 509.019531 Z M 673.566406 509.019531 " fill-opacity="1" fill-rule="nonzero"/><path fill="rgb(21.569824%, 27.839661%, 30.979919%)" d="M 673.566406 552.890625 L 316.941406 552.890625 C 312.550781 552.890625 308.710938 549.050781 308.710938 544.664062 C 308.710938 540.277344 312.550781 536.4375 316.941406 536.4375 L 673.566406 536.4375 C 677.957031 536.4375 681.796875 540.277344 681.796875 544.664062 C 681.796875 549.050781 677.957031 552.890625 673.566406 552.890625 Z M 673.566406 552.890625 " fill-opacity="1" fill-rule="nonzero"/><path fill="rgb(21.569824%, 27.839661%, 30.979919%)" d="M 673.566406 591.273438 L 316.941406 591.273438 C 312.550781 591.273438 308.710938 587.433594 308.710938 583.046875 C 308.710938 578.660156 312.550781 574.824219 316.941406 574.824219 L 673.566406 574.824219 C 677.957031 574.824219 681.796875 578.660156 681.796875 583.046875 C 681.796875 587.433594 677.957031 591.273438 673.566406 591.273438 Z M 673.566406 591.273438 " fill-opacity="1" fill-rule="nonzero"/><path fill="rgb(21.569824%, 27.839661%, 30.979919%)" d="M 673.566406 629.65625 L 316.941406 629.65625 C 312.550781 629.65625 308.710938 625.820312 308.710938 621.433594 C 308.710938 617.046875 312.550781 613.207031 316.941406 613.207031 L 673.566406 613.207031 C 677.957031 613.207031 681.796875 617.046875 681.796875 621.433594 C 681.796875 625.820312 677.957031 629.65625 673.566406 629.65625 Z M 673.566406 629.65625 " fill-opacity="1" fill-rule="nonzero"/><path fill="rgb(21.569824%, 27.839661%, 30.979919%)" d="M 673.566406 355.484375 L 470.566406 355.484375 C 466.175781 355.484375 462.335938 351.644531 462.335938 347.257812 C 462.335938 342.871094 466.175781 339.03125 470.566406 339.03125 L 673.566406 339.03125 C 677.957031 339.03125 681.796875 342.871094 681.796875 347.257812 C 681.796875 351.644531 677.957031 355.484375 673.566406 355.484375 Z M 673.566406 355.484375 " fill-opacity="1" fill-rule="nonzero"/><path fill="rgb(21.569824%, 27.839661%, 30.979919%)" d="M 673.566406 393.867188 L 470.566406 393.867188 C 466.175781 393.867188 462.335938 390.03125 462.335938 385.644531 C 462.335938 381.257812 466.175781 377.417969 470.566406 377.417969 L 673.566406 377.417969 C 677.957031 377.417969 681.796875 381.257812 681.796875 385.644531 C 681.796875 390.03125 677.957031 393.867188 673.566406 393.867188 Z M 673.566406 393.867188 " fill-opacity="1" fill-rule="nonzero"/><path fill="rgb(21.569824%, 27.839661%, 30.979919%)" d="M 673.566406 432.253906 L 470.566406 432.253906 C 466.175781 432.253906 462.335938 428.414062 462.335938 424.027344 C 462.335938 419.640625 466.175781 415.800781 470.566406 415.800781 L 673.566406 415.800781 C 677.957031 415.800781 681.796875 419.640625 681.796875 424.027344 C 681.796875 428.414062 677.957031 432.253906 673.566406 432.253906 Z M 673.566406 432.253906 " fill-opacity="1" fill-rule="nonzero"/><path fill="rgb(21.569824%, 27.839661%, 30.979919%)" d="M 673.566406 476.121094 L 470.566406 476.121094 C 466.175781 476.121094 462.335938 472.28125 462.335938 467.894531 C 462.335938 463.507812 466.175781 459.667969 470.566406 459.667969 L 673.566406 459.667969 C 677.957031 459.667969 681.796875 463.507812 681.796875 467.894531 C 681.796875 472.28125 677.957031 476.121094 673.566406 476.121094 Z M 673.566406 476.121094 " fill-opacity="1" fill-rule="nonzero"/><path fill="rgb(100%, 67.059326%, 0%)" d="M 319.683594 347.257812 L 434.902344 347.257812 L 434.902344 462.410156 L 319.683594 462.410156 Z M 319.683594 347.257812 " fill-opacity="1" fill-rule="nonzero"/><path fill="rgb(21.569824%, 27.839661%, 30.979919%)" d="M 434.902344 470.636719 L 319.683594 470.636719 C 315.292969 470.636719 311.453125 466.796875 311.453125 462.410156 L 311.453125 347.257812 C 311.453125 342.871094 315.292969 339.03125 319.683594 339.03125 L 434.902344 339.03125 C 439.292969 339.03125 443.132812 342.871094 443.132812 347.257812 L 443.132812 462.410156 C 443.132812 466.796875 439.292969 470.636719 434.902344 470.636719 Z M 327.914062 454.1875 L 426.671875 454.1875 L 426.671875 355.484375 L 327.914062 355.484375 Z M 327.914062 454.1875 " fill-opacity="1" fill-rule="nonzero"/><path fill="rgb(100%, 67.059326%, 0%)" d="M 635.164062 256.78125 L 668.082031 256.78125 L 668.082031 306.132812 L 635.164062 306.132812 Z M 635.164062 256.78125 " fill-opacity="1" fill-rule="nonzero"/><path fill="rgb(21.569824%, 27.839661%, 30.979919%)" d="M 349.859375 260.070312 L 349.859375 303.390625 C 349.859375 305.582031 349.859375 307.777344 347.117188 307.777344 C 344.375 307.777344 344.375 306.132812 344.375 303.390625 L 344.375 284.199219 L 322.425781 284.199219 L 322.425781 303.390625 C 322.425781 305.582031 321.878906 307.777344 319.683594 307.777344 C 317.488281 307.777344 316.941406 306.132812 316.941406 303.390625 L 316.941406 260.070312 C 316.941406 257.878906 316.941406 255.683594 319.683594 255.683594 C 321.878906 255.683594 322.425781 257.878906 322.425781 260.070312 L 322.425781 278.714844 L 344.375 278.714844 L 344.375 260.070312 C 344.375 257.878906 344.921875 255.683594 347.117188 255.683594 C 349.859375 255.683594 349.859375 257.328125 349.859375 260.070312 Z M 349.859375 260.070312 " fill-opacity="1" fill-rule="nonzero"/><path fill="rgb(21.569824%, 27.839661%, 30.979919%)" d="M 390.460938 303.390625 C 390.460938 305.582031 388.816406 306.132812 386.070312 306.132812 L 362.480469 306.132812 C 359.734375 306.132812 360.832031 305.582031 360.832031 303.390625 L 360.832031 260.070312 C 360.832031 257.878906 359.734375 256.78125 362.480469 256.78125 L 386.070312 256.78125 C 388.816406 256.78125 390.460938 257.328125 390.460938 259.523438 C 390.460938 261.714844 388.816406 262.265625 386.070312 262.265625 L 366.320312 262.265625 L 366.320312 278.714844 L 382.230469 278.714844 C 384.425781 278.714844 386.621094 279.261719 386.621094 281.457031 C 386.621094 283.648438 384.425781 284.199219 382.230469 284.199219 L 366.320312 284.199219 L 366.320312 300.648438 L 386.070312 300.648438 C 388.816406 300.648438 390.460938 301.195312 390.460938 303.390625 Z M 390.460938 303.390625 " fill-opacity="1" fill-rule="nonzero"/><path fill="rgb(21.569824%, 27.839661%, 30.979919%)" d="M 439.292969 301.746094 L 439.292969 303.390625 C 439.292969 305.582031 437.644531 307.777344 434.902344 307.777344 C 433.257812 307.777344 431.609375 306.132812 431.0625 304.488281 L 428.316406 295.164062 L 408.019531 295.164062 L 404.726562 303.9375 C 404.175781 305.582031 402.53125 307.230469 400.886719 307.230469 C 398.140625 307.230469 396.496094 305.582031 396.496094 303.390625 L 396.496094 301.746094 L 414.054688 258.425781 C 414.601562 256.78125 416.246094 255.683594 417.894531 255.683594 C 419.539062 255.683594 421.183594 256.78125 421.734375 258.425781 Z M 424.476562 289.683594 L 417.894531 273.230469 L 411.308594 289.683594 Z M 424.476562 289.683594 " fill-opacity="1" fill-rule="nonzero"/><path fill="rgb(21.569824%, 27.839661%, 30.979919%)" d="M 449.714844 306.132812 C 447.519531 306.132812 443.132812 305.582031 443.132812 303.390625 L 443.132812 260.070312 C 443.132812 257.878906 446.972656 256.78125 449.714844 256.78125 L 462.335938 256.78125 C 462.882812 256.78125 484.28125 255.136719 484.28125 281.457031 C 484.28125 307.230469 462.335938 306.132812 462.335938 306.132812 Z M 454.105469 300.648438 L 462.335938 300.648438 C 462.335938 300.648438 466.175781 299.550781 469.46875 297.359375 C 473.855469 294.617188 476.050781 289.132812 476.050781 282.003906 C 476.050781 274.328125 473.855469 268.296875 469.46875 265.554688 C 466.175781 263.359375 462.882812 262.265625 462.882812 262.265625 L 454.105469 262.265625 Z M 454.105469 300.648438 " fill-opacity="1" fill-rule="nonzero"/><path fill="rgb(21.569824%, 27.839661%, 30.979919%)" d="M 494.15625 306.132812 C 491.960938 306.132812 492.511719 305.582031 492.511719 303.390625 L 492.511719 260.070312 C 492.511719 257.878906 492.511719 255.683594 495.253906 255.683594 C 497.996094 255.683594 497.996094 257.878906 497.996094 260.070312 L 497.996094 300.648438 L 513.910156 300.648438 C 516.101562 300.648438 518.296875 301.195312 518.296875 303.390625 C 518.296875 305.582031 516.652344 306.132812 513.910156 306.132812 Z M 494.15625 306.132812 " fill-opacity="1" fill-rule="nonzero"/><path fill="rgb(21.569824%, 27.839661%, 30.979919%)" d="M 525.429688 303.390625 L 525.429688 260.070312 C 525.429688 257.878906 525.980469 255.683594 528.175781 255.683594 C 530.367188 255.683594 530.917969 257.878906 530.917969 260.070312 L 530.917969 303.390625 C 530.917969 305.582031 530.367188 307.777344 528.175781 307.777344 C 525.980469 307.230469 525.429688 305.582031 525.429688 303.390625 Z M 525.429688 303.390625 " fill-opacity="1" fill-rule="nonzero"/><path fill="rgb(21.569824%, 27.839661%, 30.979919%)" d="M 569.871094 305.582031 L 547.375 273.78125 L 547.375 303.390625 C 547.375 305.582031 544.085938 307.777344 541.890625 307.777344 C 539.148438 307.777344 536.402344 306.132812 536.402344 303.390625 L 536.402344 260.070312 C 536.402344 257.878906 539.148438 255.683594 541.890625 255.683594 C 542.988281 255.683594 545.183594 256.234375 546.28125 257.328125 L 569.324219 289.683594 L 569.324219 260.070312 C 569.324219 257.878906 569.871094 255.683594 572.066406 255.683594 C 574.261719 255.683594 574.808594 257.878906 574.808594 260.070312 L 574.808594 303.390625 C 574.808594 305.582031 574.261719 307.777344 572.066406 307.777344 C 570.421875 307.230469 570.421875 306.679688 569.871094 305.582031 Z M 569.871094 305.582031 " fill-opacity="1" fill-rule="nonzero"/><path fill="rgb(21.569824%, 27.839661%, 30.979919%)" d="M 615.410156 303.390625 C 615.410156 305.582031 613.765625 306.132812 611.019531 306.132812 L 587.429688 306.132812 C 584.6875 306.132812 585.78125 305.582031 585.78125 303.390625 L 585.78125 260.070312 C 585.78125 257.878906 584.6875 256.78125 587.429688 256.78125 L 611.019531 256.78125 C 613.765625 256.78125 615.410156 257.328125 615.410156 259.523438 C 615.410156 261.714844 613.765625 262.265625 611.019531 262.265625 L 591.269531 262.265625 L 591.269531 278.714844 L 606.632812 278.714844 C 608.828125 278.714844 611.019531 279.261719 611.019531 281.457031 C 611.019531 283.648438 609.375 284.199219 606.632812 284.199219 L 591.269531 284.199219 L 591.269531 300.648438 L 611.019531 300.648438 C 613.765625 300.648438 615.410156 301.195312 615.410156 303.390625 Z M 615.410156 303.390625 " fill-opacity="1" fill-rule="nonzero"/></svg>